nColumns=19
nRows=66
DataType=double
version=3
OpenSimVersion=4.1
endheader
time	ground_force_calcn_r_vx	ground_force_calcn_r_vy	ground_force_calcn_r_vz	ground_force_calcn_r_px	ground_force_calcn_r_py	ground_force_calcn_r_pz	ground_force_calcn_r_mx	ground_force_calcn_r_my	ground_force_calcn_r_mz	ground_force_calcn_l_vx	ground_force_calcn_l_vy	ground_force_calcn_l_vz	ground_force_calcn_l_px	ground_force_calcn_l_py	ground_force_calcn_l_pz	ground_force_calcn_l_mx	ground_force_calcn_l_my	ground_force_calcn_l_mz
2.05	-2.04086	10.9778	-0.806568	0.00321638	0	-0.000152835	-0	0	-0	0	0	0	0	0	0	0	0	0
2.06	4.6243	41.9065	-4.68956	1.023	0	-0.331146	0.329166	2.98298	-0.333811	0	0	0	0	0	0	0	0	0
2.07	19.4252	168.289	-14.1181	0.95001	0	-0.313297	0.100096	0.867176	-0.0727491	0	0	0	0	0	0	0	0	0
2.08	29.353	500.302	-24.5159	0.962148	0	-0.319233	0.0320738	0.546677	-0.0267883	0	0	0	0	0	0	0	0	0
2.09	-4.58181	1013.31	8.1746	0.96281	0	-0.320539	-0.010373	2.29408	0.0185068	0	0	0	0	0	0	0	0	0
2.1	-86.5831	1398.79	122.021	0.960061	0	-0.321606	-0.208619	3.37033	0.294005	0	0	0	0	0	0	0	0	0
2.11	-160.972	1451.66	205	0.952292	0	-0.322625	-0.209036	1.8851	0.266209	0	0	0	0	0	0	0	0	0
2.12	-200.12	1371.69	124.629	0.934302	0	-0.322975	0.155544	-1.06615	-0.0968687	0	0	0	0	0	0	0	0	0
2.13	-197.396	1376.65	-8.35654	0.901879	0	-0.321662	0.441475	-3.07887	0.0186894	0	0	0	0	0	0	0	0	0
2.14	-160.832	1486.57	-22.6571	0.862017	0	-0.31861	0.322802	-2.98366	0.0454746	0	0	0	0	0	0	0	0	0
2.15	-111.042	1612.4	36.5442	0.826839	0	-0.315386	0.131378	-1.90769	-0.0432368	0	0	0	0	0	0	0	0	0
2.16	-63.3663	1674.45	44.1752	0.800009	0	-0.31344	0.0568424	-1.50206	-0.0396271	0	0	0	0	0	0	0	0	0
2.17	-29.3698	1659.43	13.6164	0.777948	0	-0.312652	0.0369671	-2.08869	-0.0171387	0	0	0	0	0	0	0	0	0
2.18	-6.42197	1602.69	8.65459	0.756116	0	-0.3122	0.0112545	-2.80873	-0.0151672	0	0	0	0	0	0	0	0	0
2.19	16.9357	1530.14	19.8401	0.73173	0	-0.311609	-0.0316154	-2.85646	-0.0370374	0	0	0	0	0	0	0	0	0
2.2	46.9537	1444.7	23.6882	0.704465	0	-0.310985	-0.0714465	-2.19831	-0.0360449	0	0	0	0	0	0	0	0	0
2.21	80.9176	1338.34	29.118	0.676029	0	-0.310641	-0.0878023	-1.45221	-0.0315955	0	0	0	0	0	0	0	0	0
2.22	113.209	1200.05	40.8707	0.648259	0	-0.310692	-0.120198	-1.27413	-0.0433938	0	0	0	0	0	0	0	0	0
2.23	135.466	1020.92	55.7248	0.621344	0	-0.310978	-0.223155	-1.68177	-0.0917961	0	0	0	0	0	0	0	0	0
2.24	137.764	800.391	70.7712	0.593047	0	-0.311179	-0.322297	-1.8725	-0.165568	0	0	0	0	0	0	0	0	0
2.25	115.208	553.753	71.2178	0.55749	0	-0.310831	-0.192069	-0.923192	-0.118731	0	0	0	0	0	0	0	0	0
2.26	83.189	321.878	44.1381	0.500495	0	-0.308761	0.302876	1.1719	0.160698	0	0	0	0	0	0	0	0	0
2.27	56.3856	152.801	6.86124	0.375715	0	-0.298278	1.21184	3.284	0.147462	0	0	0	0	0	0	0	0	0
2.28	31.7028	58.9825	-7.86686	-0.498264	0	-0.210883	2.15162	4.00305	-0.533911	0	0	0	0	0	0	0	0	0
2.29	9.50037	22.657	-2.08765	0.00321638	0	-0.000152835	2.09213e-19	4.98942e-19	-4.59734e-20	0	0	0	0	0	0	0	0	0
2.3	-2.55858	11.6081	2.69997	0.00321638	0	-0.000152835	-1.8206e-19	8.25991e-19	1.92121e-19	0	0	0	0	0	0	0	0	0
2.31	0	0	0	0	0	0	0	0	0	0	0	0	0	0	0	0	0	0
2.32	0	0	0	0	0	0	0	0	0	0	0	0	0	0	0	0	0	0
2.33	0	0	0	0	0	0	0	0	0	0	0	0	0	0	0	0	0	0
2.34	0	0	0	0	0	0	0	0	0	0	0	0	0	0	0	0	0	0
2.35	0	0	0	0	0	0	0	0	0	0	0	0	0	0	0	0	0	0
2.36	0	0	0	0	0	0	0	0	0	0	0	0	0	0	0	0	0	0
2.37	0	0	0	0	0	0	0	0	0	0	0	0	0	0	0	0	0	0
2.38	0	0	0	0	0	0	0	0	0	-0.948114	15.8576	-2.94262	0.00321638	0	-0.000152835	1.27251e-19	-2.12833e-18	3.94944e-19
2.39	0	0	0	0	0	0	0	0	0	-0.107701	49.3979	-5.53524	0.986331	0	-0.262894	-0.00348707	1.59938	-0.179217
2.4	0	0	0	0	0	0	0	0	0	2.94238	175.472	-12.6081	0.909565	0	-0.309773	0.0232084	1.38406	-0.0994479
2.41	0	0	0	0	0	0	0	0	0	-0.863775	485.067	-26.4866	0.914882	0	-0.29873	0.000692865	-0.38909	0.0212459
2.42	0	0	0	0	0	0	0	0	0	-31.2418	927.144	-35.809	0.911506	0	-0.294041	0.12923	-3.83507	0.148122
2.43	0	0	0	0	0	0	0	0	0	-83.1864	1233.17	-44.4737	0.904291	0	-0.290981	0.490688	-7.27406	0.262335
2.44	0	0	0	0	0	0	0	0	0	-129.366	1271.93	-88.6092	0.891956	0	-0.289234	0.870481	-8.55862	0.596238
2.45	0	0	0	0	0	0	0	0	0	-160.706	1208.26	-137.884	0.872042	0	-0.289189	0.941638	-7.07967	0.807918
2.46	0	0	0	0	0	0	0	0	0	-171.461	1187.86	-103.66	0.842964	0	-0.29101	0.629823	-4.36334	0.380772
2.47	0	0	0	0	0	0	0	0	0	-153.875	1220.64	-18.2814	0.806476	0	-0.293942	0.271166	-2.15107	0.0322163
2.48	0	0	0	0	0	0	0	0	0	-112.713	1262.51	9.33351	0.767955	0	-0.296839	0.0996117	-1.11576	-0.0082486
2.49	0	0	0	0	0	0	0	0	0	-61.5731	1284.57	-12.4602	0.729882	0	-0.298777	0.0344322	-0.718344	0.00696782
2.5	0	0	0	0	0	0	0	0	0	-4.73702	1283.22	-17.7798	0.690501	0	-0.299282	0.00113257	-0.306803	0.00425094
2.51	0	0	0	0	0	0	0	0	0	63.4133	1257.28	-12.9905	0.647955	0	-0.298489	0.00649873	0.128848	-0.0013313
2.52	0	0	0	0	0	0	0	0	0	137.01	1198.97	-20.9619	0.602422	0	-0.296959	0.0435612	0.381205	-0.00666469
2.53	0	0	0	0	0	0	0	0	0	200.616	1102.87	-31.3933	0.555277	0	-0.295306	0.112281	0.617255	-0.0175703
2.54	0	0	0	0	0	0	0	0	0	249.297	967.575	-41.9192	0.507402	0	-0.293917	0.31629	1.22759	-0.0531842
2.55	0	0	0	0	0	0	0	0	0	274.072	796.095	-51.4875	0.458138	0	-0.29282	0.776552	2.25564	-0.145884
2.56	0	0	0	0	0	0	0	0	0	260.808	601.096	-47.7663	0.405209	0	-0.291765	1.40922	3.24789	-0.258095
2.57	0	0	0	0	0	0	0	0	0	212.689	408.028	-32.6532	0.346641	0	-0.290424	1.87957	3.60581	-0.288562
2.58	0	0	0	0	0	0	0	0	0	150.554	245.168	-21.7014	0.29224	0	-0.288646	1.77554	2.89137	-0.255934
2.59	0	0	0	0	0	0	0	0	0	92.9713	128.068	-13.9816	0.320001	0	-0.286828	0.818593	1.12762	-0.123105
2.6	0	0	0	0	0	0	0	0	0	47.5637	58.2942	-2.94547	0.633902	0	-0.292758	-0.844142	-1.03458	0.052275
2.61	0	0	0	0	0	0	0	0	0	16.8191	26.6611	0.731494	0.00321638	0	-0.000152835	-7.52286e-19	-1.1925e-18	-3.27183e-20
2.62	0	0	0	0	0	0	0	0	0	-0.15307	13.9314	-3.82816	0.00321638	0	-0.000152835	-1.2065e-20	1.09809e-18	-3.01738e-19
2.63	0	0	0	0	0	0	0	0	0	0	0	0	0	0	0	0	0	0
2.64	0	0	0	0	0	0	0	0	0	0	0	0	0	0	0	0	0	0
2.65	-0.730177	30.6746	-1.6261	1.07022	0	-0.310048	-0.027045	1.13616	-0.060229	0	0	0	0	0	0	0	0	0
2.66	-8.17395	122.235	-14.3758	0.944346	0	-0.281685	-0.0343979	0.514395	-0.0604968	0	0	0	0	0	0	0	0	0
2.67	-21.6644	413.517	-32.076	0.987238	0	-0.292349	-0.113549	2.16735	-0.168119	0	0	0	0	0	0	0	0	0
2.68	-41.3375	952.603	-24.8807	0.988801	0	-0.29395	-0.292039	6.72989	-0.175775	0	0	0	0	0	0	0	0	0
2.69	-80.297	1404.3	63.6355	0.985396	0	-0.295037	-0.626339	10.9539	0.496375	0	0	0	0	0	0	0	0	0
2.7	-143.025	1423.2	169.329	0.977538	0	-0.296279	-1.14242	11.3679	1.35253	0	0	0	0	0	0	0	0	0
